<svg width="67" height="63" viewBox="0 0 67 63" fill="none" xmlns="http://www.w3.org/2000/svg">
<path d="M51.3376 9.39168C51.3668 9.39377 51.3959 9.39587 51.4256 9.39587C51.4759 9.39587 51.5263 9.39168 51.5756 9.38488C52.8948 9.41157 53.9507 10.4742 53.9522 11.7772C53.9522 12.3692 54.4383 12.8492 55.0378 12.8492C55.6372 12.8492 56.1232 12.3692 56.1232 11.7772C56.1206 9.64609 54.6185 7.8024 52.5111 7.34384V6.31363C52.5111 5.72158 52.0251 5.24155 51.4256 5.24155C50.8261 5.24155 50.3401 5.72158 50.3401 6.31363V7.39252C48.1119 7.98091 46.6702 10.1099 46.9707 12.3687C47.2712 14.6275 49.2207 16.3162 51.5274 16.3162C52.8667 16.3162 53.9522 17.3888 53.9522 18.7117C53.9522 20.034 52.8667 21.1066 51.5274 21.1066C50.188 21.1066 49.1025 20.034 49.1025 18.7117C49.1025 18.1196 48.6164 17.6396 48.017 17.6396C47.4175 17.6396 46.9315 18.1196 46.9315 18.7117C46.9341 20.7658 48.3313 22.5629 50.3401 23.0963V24.271C50.3401 24.8631 50.8261 25.3431 51.4256 25.3431C52.0251 25.3431 52.5111 24.8631 52.5111 24.271V23.1455C54.8035 22.6498 56.3496 20.5276 56.0967 18.2233C55.8445 15.9189 53.8743 14.1726 51.5274 14.1731C50.2251 14.1736 49.1549 13.1581 49.1035 11.873C49.0527 10.5878 50.039 9.49219 51.3376 9.3922V9.39168Z" fill="#FCBB14"/>
<path d="M51.5894 0C44.9115 0 39.2127 4.30351 37.0777 10.066H10.1358C9.53895 10.066 9.0545 10.5973 9.05026 11.1862L8.79372 48.7949H1.11412C0.514659 48.7949 0 49.2236 0 49.8167V54.5893C0.0137807 59.0823 3.59678 62.7733 8.14126 62.9764V63H41.6561V62.9686C41.9275 62.9785 42.0393 63 42.211 63H42.2344C46.9378 62.9927 50.7472 59.2247 50.7472 54.5793V30.4491C51.0185 30.4638 51.3058 30.4716 51.5867 30.4716C60.0847 30.4716 67 23.6287 67 15.2353C67 6.84237 60.0879 0 51.5894 0ZM8.54726 60.8558C5.03581 60.8511 2.1869 58.0469 2.171 54.5783V50.9391H33.6505V54.5631C33.6521 56.8005 34.5569 58.9451 36.1639 60.5224C36.2779 60.6349 36.4194 60.7218 36.5387 60.8558H8.54726ZM48.5762 54.5783C48.5767 58.0406 45.7384 60.849 42.2333 60.8558H42.2126C38.6932 60.8496 35.839 58.0395 35.8215 54.5642V49.8167C35.8305 49.5424 35.7245 49.277 35.5279 49.0834C35.3313 48.8897 35.0625 48.7855 34.7853 48.7949H10.9647L11.2138 12.2101H36.4751C36.2827 13.1916 36.183 14.1883 36.1777 15.1877C36.1756 17.3009 36.6219 19.3907 37.4879 21.3228H27.235C26.6351 21.3228 26.1495 21.8028 26.1495 22.3949C26.1495 22.9869 26.6351 23.467 27.235 23.467H38.6657C40.905 26.945 44.4849 29.3697 48.5762 30.1811V54.5783ZM51.5894 28.328C44.2771 28.328 38.3487 22.4734 38.3492 15.251C38.3492 8.02857 44.2771 2.174 51.5899 2.174C58.9022 2.174 64.8301 8.0291 64.8301 15.251C64.8221 22.4698 58.899 28.3201 51.5894 28.328Z" fill="#FCBB14"/>
<path d="M20.2673 28.4578C18.3512 28.4578 16.7929 29.9482 16.7929 31.7803C16.7929 33.6125 18.3512 35.1028 20.2673 35.1028C22.1833 35.1028 23.7421 33.6125 23.7421 31.7803C23.7421 29.9482 22.1833 28.4578 20.2673 28.4578ZM20.2673 32.9587C19.548 32.9587 18.9639 32.43 18.9639 31.7803C18.9639 31.1302 19.5485 30.602 20.2673 30.602C20.986 30.602 21.5711 31.1307 21.5711 31.7803C21.5711 32.43 20.986 32.9587 20.2673 32.9587Z" fill="#FCBB14"/>
<path d="M26.1495 31.7756C26.1495 32.3676 26.6351 32.8476 27.235 32.8476H41.707C42.3064 32.8476 42.7925 32.3676 42.7925 31.7756C42.7925 31.1835 42.3064 30.7035 41.707 30.7035H27.235C26.6351 30.7035 26.1495 31.1835 26.1495 31.7756Z" fill="#FCBB14"/>
<path d="M20.2673 19.1383C18.3512 19.1383 16.7929 20.6292 16.7929 22.4614C16.7929 24.2935 18.3512 25.7839 20.2673 25.7839C22.1833 25.7839 23.7421 24.2935 23.7421 22.4614C23.7421 20.6292 22.1833 19.1383 20.2673 19.1383ZM20.2673 23.6397C19.548 23.6397 18.9639 23.111 18.9639 22.4614C18.9639 21.8117 19.5485 21.2825 20.2673 21.2825C20.986 21.2825 21.5711 21.8112 21.5711 22.4614C21.5711 23.111 20.986 23.6402 20.2673 23.6402V23.6397Z" fill="#FCBB14"/>
<path d="M20.2673 37.7762C18.3512 37.7762 16.7929 39.2666 16.7929 41.0987C16.7929 42.9309 18.3512 44.4213 20.2673 44.4213C22.1833 44.4213 23.7421 42.9309 23.7421 41.0987C23.7421 39.2666 22.1833 37.7762 20.2673 37.7762ZM20.2673 42.2771C19.548 42.2771 18.9639 41.7489 18.9639 41.0987C18.9639 40.4491 19.5485 39.9204 20.2673 39.9204C20.986 39.9204 21.5711 40.4491 21.5711 41.0987C21.5711 41.7484 20.986 42.2771 20.2673 42.2771Z" fill="#FCBB14"/>
<path d="M41.707 40.0842H27.235C26.6351 40.0842 26.1495 40.5643 26.1495 41.1563C26.1495 41.7484 26.6351 42.2284 27.235 42.2284H41.707C42.3064 42.2284 42.7925 41.7484 42.7925 41.1563C42.7925 40.5643 42.3064 40.0842 41.707 40.0842Z" fill="#FCBB14"/>
</svg>
