<svg width="63" height="63" viewBox="0 0 63 63" fill="none" xmlns="http://www.w3.org/2000/svg">
<path d="M48.5385 48.4353C46.8827 49.9877 46.8827 52.575 48.5385 54.2309C49.3665 55.0589 50.4014 55.4729 51.4363 55.4729C52.4712 55.4729 53.5062 55.0589 54.3341 54.2309C55.9899 52.6785 55.9899 50.0912 54.3341 48.4353C52.7818 46.7794 50.1944 46.7794 48.5385 48.4353ZM52.8853 52.8854C52.0573 53.7134 50.8153 53.7134 49.9875 52.8854C49.1596 52.0575 49.1595 50.8155 49.9875 49.9877C50.4014 49.5737 50.9189 49.3667 51.4364 49.3667C51.9539 49.3667 52.4713 49.5737 52.8854 49.9877C53.7133 50.8157 53.7133 52.0576 52.8853 52.8854Z" fill="#FCBB14"/>
<path d="M61.3717 49.677L42.7428 31.0481L50.0909 23.7L50.091 23.6999L54.4377 19.3533L54.4378 19.3532L60.7507 13.0402C62.5102 11.2808 62.5102 8.38299 60.7507 6.62356L55.4726 1.34538C54.6447 0.517509 53.5062 0 52.2643 0C51.0224 0 49.8839 0.517509 49.056 1.34538L42.743 7.65845L38.3962 12.0052L31.0481 19.3533L12.6262 0.931443C11.4877 -0.207028 9.41789 -0.207028 8.27942 0.931443L0.931444 8.27954C-0.310481 9.41801 -0.310481 11.3843 0.931444 12.6263L3.10481 14.7996L9.00395 20.6988L14.7995 26.4944C14.7995 26.4944 14.7995 26.4944 14.7996 26.4945L19.3533 31.0481L2.73939 47.662C2.42964 47.7987 2.26263 48.078 2.17337 48.4351L0 60.8543C0 61.2682 0.103453 61.5787 0.310481 61.7858C0.517388 61.9928 0.724416 62.0962 1.0349 62.0962C1.13835 62.0962 1.13835 62.0962 1.24192 62.0962L13.1815 59.8889C13.2641 59.9107 13.3532 59.9229 13.4541 59.9229C13.7646 59.9229 14.0751 59.8194 14.1786 59.6124L31.048 42.7429L32.3934 44.0883C32.3934 44.0883 32.3934 44.0883 32.3935 44.0884L32.3936 44.0886L35.2913 46.9862C35.2913 46.9862 35.2913 46.9862 35.2914 46.9864L35.2915 46.9865L49.677 61.3719C50.1945 61.8895 50.8155 62.0964 51.4364 62.0964C52.0574 62.0964 52.6783 61.8893 53.0923 61.3719L61.3718 53.0924C62.3031 52.1608 62.3031 50.6084 61.3717 49.677ZM13.4541 57.3356L9.83291 53.7143L44.2425 19.404L47.8141 22.9756L13.4541 57.3356ZM50.5049 2.79433C51.4363 1.86289 53.0922 1.86289 54.0236 2.79433L59.3018 8.07251C60.2332 9.00395 60.2332 10.6598 59.3018 11.5913L53.7131 17.1799L44.9162 8.38299L50.5049 2.79433ZM43.4674 9.83194L47.8659 14.2305L52.2643 18.6289L49.3665 21.5267L40.5696 12.7297L43.4674 9.83194ZM19.9225 28.7195L22.1476 26.4944C22.5616 26.0804 22.5616 25.4595 22.1476 25.0454C21.7337 24.6313 21.1127 24.6315 20.6987 25.0454L18.4735 27.2706L16.9729 25.7699L20.5952 22.1476C21.0091 21.7337 21.0091 21.1127 20.5952 20.6987C20.1813 20.2846 19.5603 20.2847 19.1463 20.6987L15.5239 24.321L14.075 22.872L16.2484 20.6987C16.6623 20.2847 16.6623 19.6638 16.2484 19.2497C15.8344 18.8357 15.2135 18.8358 14.7994 19.2497L12.626 21.4231L11.1771 19.9741L14.7994 16.3518C15.2133 15.9379 15.2133 15.3169 14.7994 14.9029C14.3855 14.4888 13.7645 14.4889 13.3504 14.9029L9.72837 18.5254L8.17596 16.973L10.3493 14.7996C10.7633 14.3857 10.7633 13.7647 10.3493 13.3507C9.9354 12.9366 9.31444 12.9368 8.90038 13.3507L6.72701 15.5241L5.27806 14.0751L8.90038 10.4528C9.31431 10.0388 9.31431 9.41789 8.90038 9.00383C8.48644 8.58978 7.86548 8.5899 7.45143 9.00383L3.82923 12.6263L2.38027 11.1773C1.96634 10.7634 1.96634 10.1424 2.38027 9.72837L9.72837 2.3804C9.9354 2.17337 10.1423 2.06991 10.4528 2.06991C10.6598 2.06991 10.9703 2.17337 11.1772 2.3804L29.5992 20.8022L20.8022 29.5992L19.9225 28.7195ZM39.1206 14.2821L42.7419 17.9034L8.3323 52.2137L4.76067 48.6421L39.1206 14.2821ZM3.93268 50.7119L7.32808 54.1073C7.37975 54.2255 7.45507 54.3377 7.555 54.4377L11.2961 58.1786L2.3804 59.7157L3.93268 50.7119ZM59.9229 51.6433L51.6433 59.9229C51.5399 60.0263 51.2294 60.0263 51.1258 59.9229L40.4142 49.2113L44.0882 45.5373C44.5021 45.1233 44.5021 44.5024 44.0882 44.0883C43.6743 43.6744 43.0533 43.6744 42.6393 44.0883L38.9653 47.7623L37.4646 46.2617L39.638 44.0883C40.052 43.6744 40.052 43.0534 39.638 42.6394C39.2241 42.2254 38.6031 42.2254 38.1891 42.6394L36.0157 44.8127L34.5667 43.3638L38.1891 39.7415C38.603 39.3275 38.603 38.7066 38.1891 38.2925C37.7751 37.8786 37.1542 37.8786 36.7401 38.2925L33.1179 41.915L32.497 41.294L41.2939 32.4971L59.9227 51.1259C60.0263 51.2294 60.0263 51.5399 59.9229 51.6433Z" fill="#FCBB14"/>
</svg>
