<svg width="61" height="61" viewBox="0 0 61 61" fill="none" xmlns="http://www.w3.org/2000/svg">
<path d="M56.7769 45.4718C55.5262 44.5916 54.0829 44.1188 52.625 44.0417C47.1301 40.4434 43.5306 37.7426 41.4291 35.6411L34.9736 29.1856L38.891 24.8006C39.6335 25.2197 40.4308 25.4959 41.2284 25.6098C41.8303 25.71 42.2315 25.71 42.6328 25.71C43.4354 25.71 43.6359 25.71 44.4385 26.4122C44.0373 26.7131 43.8366 27.2147 43.8366 27.7162C43.8366 28.2177 44.0373 28.8197 44.4385 29.2209L47.9494 32.7319C48.451 33.3337 49.2535 33.6347 50.056 33.6347C50.8585 33.6347 51.661 33.3337 52.1626 32.6316L59.2848 25.5094C59.8867 25.0078 60.1876 24.2054 60.1876 23.4028C60.1876 22.6003 59.8867 21.8981 59.2848 21.2963L55.7738 17.7853C55.3726 17.3841 54.871 17.1834 54.3694 17.1834C53.8678 17.1834 53.3663 17.4843 52.965 17.7853C52.1624 17.0831 52.1624 16.8825 52.1624 16.0799C52.1624 15.6787 52.1624 15.1771 51.9618 14.5752C51.7611 13.1708 51.059 11.7665 49.9555 10.6631L46.3442 7.0518C44.2377 4.94524 43.2346 3.94216 40.5262 2.73841C34.7081 0.0299691 28.7896 0.531571 20.1627 4.44376C19.6611 4.64442 19.4605 5.04563 19.5608 5.54723C19.6611 6.04884 20.0624 6.34977 20.5639 6.34977H21.8679C26.2817 6.34977 28.5888 6.34977 32.6014 10.3622C34.3584 12.1192 34.409 14.8132 32.8349 16.7952C32.6227 16.8272 32.4612 16.9224 32.3005 17.0831L27.8445 22.0566L24.4761 18.6882C20.7738 14.986 18.1698 11.4832 16.1656 7.58291C16.0604 5.6093 15.2685 3.76277 13.843 2.33731C12.1378 0.632079 9.73027 -0.17046 7.32277 0.0302045C7.02183 0.130478 6.7209 0.331142 6.62062 0.531806C6.41996 0.832743 6.41996 1.23395 6.62062 1.53489L9.42933 6.55055C8.82746 7.85458 7.42304 8.65712 6.01875 8.55684L3.10965 3.74173C3.00937 3.44079 2.60805 3.24013 2.30711 3.24013C2.00617 3.13985 1.70523 3.3404 1.50457 3.64134C-0.90293 7.25258 -0.000117489 12.0676 3.61113 14.5754C4.85532 15.4641 6.25703 15.9583 7.67661 16.0596C7.69248 16.0663 7.70741 16.0745 7.72386 16.08C11.6361 18.0863 15.147 20.6944 18.8585 24.406L22.5273 27.9913L1.20375 51.7914C0.401211 52.594 0 53.6973 0 54.8008C0 55.9043 0.401211 56.9074 1.20375 57.7099L2.60816 59.1143C3.4107 59.8165 4.41379 60.2178 5.41687 60.2178C6.41996 60.2178 7.52344 59.8166 8.32597 59.0141L29.6252 35.1726L35.8116 41.359C37.9161 43.4636 40.6215 47.1703 44.2277 52.5788C44.357 54.5094 45.1471 56.312 46.545 57.7099C48.0497 59.2146 50.056 60.0171 52.1626 60.0171C52.4635 60.0171 52.7644 60.0171 52.9651 60.0171C53.266 60.0171 53.567 59.8165 53.7676 59.5155C53.9683 59.2146 53.9683 58.8134 53.7676 58.5125L50.8585 53.5972C51.5607 52.2932 52.8648 51.4906 54.3695 51.5909L57.1782 56.4059C57.2785 56.7068 57.6798 56.9075 57.9808 56.9075C58.382 56.8072 58.6829 56.7068 58.8836 56.4059C61.291 52.7945 60.2878 47.9795 56.7769 45.4718ZM33.9057 8.75739C30.6956 5.64774 28.2881 4.64454 25.5797 4.3436C31.2975 2.53798 35.5106 2.63825 39.7237 4.54427C42.1312 5.54735 42.9338 6.34989 45.0403 8.45645L48.6516 12.0677C49.4541 12.8702 49.9556 13.8733 50.056 14.8764C50.1563 15.378 50.1563 15.7792 50.1563 16.0802C50.1563 17.1836 50.2565 17.9861 51.4603 19.1898C51.8615 19.591 52.4634 19.7917 52.965 19.7917C53.5669 19.7917 54.0685 19.591 54.3694 19.1898L57.8804 22.7008C58.081 22.9014 58.1813 23.102 58.1813 23.4029C58.1813 23.7039 58.081 23.9045 57.8804 24.1051L50.7582 31.2273C50.3569 31.6285 49.7551 31.6285 49.3537 31.2273L45.8428 27.7163C46.244 27.4154 46.4446 26.9138 46.3444 26.3119C46.3444 25.8103 46.1437 25.2084 45.7425 24.8072C44.5387 23.6035 43.7362 23.5032 42.6328 23.5032C42.3319 23.5032 41.9307 23.5032 41.4291 23.4029C40.3256 23.3027 39.4228 22.8011 38.6204 21.9985L34.307 17.6851C36.5137 14.9768 36.3132 11.1649 33.9057 8.75739ZM2.4075 6.34989L4.51406 9.96114C4.71473 10.2621 5.01566 10.4627 5.3166 10.4627H5.8182C8.12543 10.563 10.232 9.35926 11.2351 7.35309L11.4357 6.85149C11.6364 6.55055 11.6364 6.24962 11.4357 5.94868L9.22879 2.13677C10.4325 2.33743 11.536 2.93931 12.4388 3.84212C13.4731 4.96252 14.1352 6.37951 14.1744 7.9016C14.155 7.97883 14.1441 8.06194 14.1441 8.15563C14.1441 8.6202 14.088 9.07337 13.9842 9.5102C13.6058 10.9627 12.6984 12.2291 11.4356 13.071C9.42933 14.375 6.7209 14.375 4.71473 12.9707C2.60816 11.4658 1.70535 8.75739 2.4075 6.34989ZM20.2631 23.0017C17.2537 19.8921 14.2443 17.4846 11.0343 15.5786C11.5359 15.3779 12.1378 15.077 12.6393 14.776C14.1439 13.7729 15.147 12.4688 15.7489 10.8638C17.6548 14.0739 20.0623 17.0832 23.0717 20.0926L26.5172 23.5381L23.8152 26.554L20.2631 23.0017ZM6.92156 57.5093C6.11902 58.3118 4.815 58.4121 4.01246 57.6095L2.60805 56.3055C2.20684 55.9043 2.00617 55.4027 2.00617 54.9011C2.00617 54.2992 2.20684 53.7976 2.70832 53.2961L3.27646 52.6605L4.71461 54.0987C4.91527 54.2993 5.11582 54.3996 5.41676 54.3996C5.71769 54.3996 5.91836 54.2993 6.1189 54.0987C6.52011 53.6975 6.52011 53.0956 6.1189 52.6943L4.60199 51.1773L5.92764 49.6942L7.52332 51.2898C7.72398 51.4905 7.92453 51.5908 8.22547 51.5908C8.5264 51.5908 8.72707 51.4905 8.92761 51.2898C9.32882 50.8886 9.32882 50.2868 8.92761 49.8854L7.25341 48.2111L33.0557 19.3431L37.2689 23.5562L33.1292 28.1877C33.011 28.2378 32.9063 28.3143 32.8022 28.4186L28.7897 32.9327C28.6751 33.0473 28.5945 33.1785 28.5453 33.3164L6.92156 57.5093ZM30.9977 33.6361L33.743 30.5632L40.2252 37.0455C42.0308 38.9514 45.1405 41.3589 49.6546 44.3683C49.0527 44.5689 48.4508 44.8699 47.8489 45.2711C46.6044 46.0489 45.723 47.1289 45.1088 48.3228C45.0997 48.3398 45.0914 48.3572 45.0824 48.3744C45.046 48.4462 45.0105 48.5184 44.9759 48.591C44.9264 48.6939 44.8794 48.7979 44.8344 48.903C44.8036 48.9742 44.7729 49.0453 44.7439 49.1169C44.7398 49.1272 44.7358 49.1375 44.7316 49.1479C44.7 49.2264 44.6686 49.3049 44.639 49.3839C44.0692 48.5483 43.5211 47.7596 42.9938 47.0166L44.3381 45.6724C44.7393 45.2712 44.7393 44.6693 44.3381 44.268C43.9369 43.8668 43.335 43.8668 42.9337 44.268L41.8154 45.3863C41.3985 44.8206 40.9959 44.287 40.6075 43.7854L41.5294 42.8636C41.9306 42.4624 41.9306 41.8605 41.5294 41.4592C41.1282 41.058 40.5263 41.058 40.125 41.4592L39.3592 42.2249C38.6219 41.3363 37.9419 40.5801 37.3162 39.9545L30.9977 33.6361ZM57.8803 53.6973L55.7737 50.0861C55.573 49.7852 55.2721 49.5845 54.9712 49.5845H54.4696C52.1623 49.3838 50.0558 50.688 49.0527 52.6941L48.852 53.1957C48.6514 53.4967 48.6514 53.7976 48.852 54.0985L51.0588 57.9105C49.8551 57.7098 48.7516 57.1079 47.8488 56.2051C46.8342 55.1059 46.1784 53.7212 46.1167 52.2321C46.1338 52.1588 46.1435 52.08 46.1435 51.992C46.1435 50.7212 46.5469 49.5315 47.25 48.5237C47.682 47.9225 48.2223 47.3962 48.8519 46.9764C49.855 46.2743 50.9585 45.9734 52.1622 45.9734C53.366 45.9734 54.5697 46.3746 55.5728 47.0768C57.6797 48.5814 58.5825 51.2898 57.8803 53.6973Z" fill="#FCBB14"/>
</svg>
