<svg width="63" height="63" viewBox="0 0 63 63" fill="none" xmlns="http://www.w3.org/2000/svg">
<path d="M61.9502 14.707C61.7366 13.9126 61.2154 13.2354 60.5024 12.8249C59.7888 12.4123 58.9404 12.3007 58.1445 12.5143C57.3497 12.7284 56.6725 13.2491 56.2619 13.9621L55.7448 14.862C55.2535 14.5797 54.6258 14.7459 54.3384 15.2347L51.7115 19.7125L50.8116 19.1954C50.5732 19.0575 50.2894 19.0201 50.0238 19.0918C49.7576 19.164 49.5314 19.3388 49.3945 19.5781C49.1143 20.0725 49.285 20.7007 49.7773 20.9845L50.6772 21.5017L41.8863 36.7358L39.7143 42.5381L38.6801 44.4717C38.0746 45.5252 38.1393 46.8346 38.8458 47.8229L36.5188 50.6771L35.8673 49.0434C35.5734 48.3152 34.8932 47.8163 34.111 47.7552C33.3282 47.6936 32.5783 48.0804 32.1748 48.7536L31.8026 49.3843L31.4512 45.2474C31.3704 44.2687 30.6124 43.482 29.6377 43.3638C28.6626 43.2461 27.7395 43.8304 27.4279 44.7616L24.8837 52.3941C24.706 52.9339 24.9969 53.5156 25.5352 53.6974C25.6362 53.7444 25.7447 53.7727 25.8558 53.7798C26.3002 53.7813 26.6961 53.498 26.8386 53.0768L29.3721 45.4444L29.7342 49.6429C29.8089 50.5387 30.4528 51.2836 31.3284 51.4866C32.2041 51.6896 33.1101 51.3038 33.5711 50.5327L33.9539 49.9014L34.5952 51.5255C34.8674 52.2097 35.483 52.6981 36.2117 52.8066C36.9404 52.9152 37.6717 52.6279 38.1322 52.0527L40.542 49.002C40.8087 49.0717 41.0834 49.1066 41.3591 49.1055C42.4676 49.1141 43.4967 48.5304 44.0583 47.5744L45.0925 45.8473L49.033 41.059L57.9168 25.6386L58.8167 26.1557C59.0566 26.293 59.2313 26.5198 59.3025 26.7869C59.3742 27.052 59.3368 27.3348 59.1995 27.5727L55.0626 34.74C54.9065 34.9754 54.8535 35.2642 54.9161 35.5399C54.9788 35.8152 55.151 36.053 55.3933 36.1979C55.6317 36.3363 55.9155 36.3737 56.1811 36.302C56.4473 36.2298 56.6735 36.055 56.8104 35.8157L60.9473 28.6483C61.3598 27.9348 61.4714 27.0864 61.2573 26.2905C61.0432 25.4956 60.5226 24.8184 59.8095 24.4079L58.9096 23.8908L61.4952 19.4125C61.7775 18.9211 61.6113 18.2939 61.123 18.0061L61.6401 17.1062C62.0638 16.3815 62.1759 15.516 61.9502 14.707ZM58.0511 14.9963C58.188 14.757 58.4152 14.5817 58.6824 14.5105C58.948 14.4449 59.2288 14.4818 59.4681 14.6141C59.708 14.7509 59.8827 14.9782 59.9544 15.2448C60.0201 15.5104 59.9832 15.7912 59.8509 16.0306L59.3338 16.9305L57.534 15.8962L58.0511 14.9963ZM43.9548 43.8723L43.4377 43.5723L41.907 42.6826L43.3755 38.7527L46.6332 40.6348L43.9548 43.8723ZM40.8521 46.8609C40.4153 46.5563 40.2809 45.9706 40.542 45.506L41.0591 44.6066L42.8584 45.6408L42.3413 46.5301C42.1964 46.7816 41.953 46.9603 41.6697 47.0235C41.3864 47.0861 41.0899 47.0275 40.8521 46.8609ZM47.8124 38.939L44.234 36.8706L52.5078 22.5359L56.0862 24.6043L47.8124 38.939ZM57.1204 22.8151L53.542 20.7467L55.6105 17.1683L59.1889 19.2368L57.1204 22.8151Z" fill="#FCBB14"/>
<path d="M16.3197 46.3434L12.659 49.9945L10.4663 47.8018C10.0629 47.4009 9.41142 47.4009 9.00793 47.8018C8.81199 47.9962 8.7019 48.2603 8.7019 48.5361C8.7019 48.8118 8.81199 49.0764 9.00793 49.2703L11.2006 51.463C11.5884 51.8478 12.1126 52.0634 12.659 52.0629C13.2085 52.066 13.7372 51.8503 14.1275 51.463L17.7781 47.8018C18.1296 47.3913 18.1059 46.7797 17.7241 46.3979C17.3418 46.0157 16.7303 45.9919 16.3197 46.3434Z" fill="#FCBB14"/>
<path d="M4.13672 49.1256C4.13672 53.9811 8.07263 57.9165 12.9276 57.9165C17.7826 57.9165 21.7185 53.9811 21.7185 49.1256C21.7185 48.5544 21.2555 48.0914 20.6843 48.0914C20.1132 48.0914 19.6501 48.5544 19.6501 49.1256C19.6501 52.8383 16.6403 55.848 12.9276 55.848C9.21492 55.848 6.20517 52.8383 6.20517 49.1256C6.20517 45.4129 9.21492 42.4031 12.9276 42.4031C14.383 42.3991 15.7995 42.8713 16.961 43.7479C17.418 44.0908 18.0664 43.9979 18.4088 43.5409C18.7517 43.0839 18.6593 42.436 18.2023 42.0931C15.5384 40.0953 11.9742 39.7741 8.99626 41.2629C6.01782 42.7521 4.13672 45.7962 4.13672 49.1256Z" fill="#FCBB14"/>
<path d="M37.2322 8.27401C37.8033 8.27401 38.2664 7.81144 38.2664 7.23979C38.2664 6.66864 37.8033 6.20557 37.2322 6.20557H10.3423C9.77118 6.20557 9.30811 6.66864 9.30811 7.23979V11.3767C9.30811 11.9483 9.77118 12.4109 10.3423 12.4109H37.2322C37.8033 12.4109 38.2664 11.9483 38.2664 11.3767C38.2664 10.8055 37.8033 10.3425 37.2322 10.3425H11.3766V8.27401H37.2322Z" fill="#FCBB14"/>
<path d="M13.4446 14.4795C12.8735 14.4795 12.4104 14.9426 12.4104 15.5137C12.4104 16.0854 12.8735 16.5479 13.4446 16.5479H34.1291C34.7003 16.5479 35.1633 16.0854 35.1633 15.5137C35.1633 14.9426 34.7003 14.4795 34.1291 14.4795H13.4446Z" fill="#FCBB14"/>
<path d="M40.3348 21.7188H17.5818C17.0107 21.7188 16.5476 22.1818 16.5476 22.753C16.5476 23.3246 17.0107 23.7872 17.5818 23.7872H40.3348C40.9059 23.7872 41.369 23.3246 41.369 22.753C41.369 22.1818 40.9059 21.7188 40.3348 21.7188Z" fill="#FCBB14"/>
<path d="M29.9924 28.9581C29.9924 28.3869 29.5294 27.9238 28.9582 27.9238H8.27373C7.70258 27.9238 7.2395 28.3869 7.2395 28.9581C7.2395 29.5297 7.70258 29.9923 8.27373 29.9923H28.9582C29.5294 29.9923 29.9924 29.5297 29.9924 28.9581Z" fill="#FCBB14"/>
<path d="M40.3348 27.9238H33.0953C32.5241 27.9238 32.061 28.3869 32.061 28.9581C32.061 29.5297 32.5241 29.9923 33.0953 29.9923H40.3348C40.906 29.9923 41.3691 29.5297 41.3691 28.9581C41.3691 28.3869 40.906 27.9238 40.3348 27.9238Z" fill="#FCBB14"/>
<path d="M18.616 35.1637C19.1871 35.1637 19.6502 34.7011 19.6502 34.1294C19.6502 33.5583 19.1871 33.0952 18.616 33.0952H8.27373C7.70258 33.0952 7.2395 33.5583 7.2395 34.1294C7.2395 34.7011 7.70258 35.1637 8.27373 35.1637H18.616Z" fill="#FCBB14"/>
<path d="M22.753 35.1637H29.9925C30.5637 35.1637 31.0268 34.7011 31.0268 34.1294C31.0268 33.5583 30.5637 33.0952 29.9925 33.0952H22.753C22.1818 33.0952 21.7188 33.5583 21.7188 34.1294C21.7188 34.7011 22.1818 35.1637 22.753 35.1637Z" fill="#FCBB14"/>
<path d="M46.5401 47.5743C45.9689 47.5743 45.5059 48.0374 45.5059 48.6085V58.9508C45.5059 59.5224 45.0428 59.985 44.4716 59.985H3.10267C2.53153 59.985 2.06845 59.5224 2.06845 58.9508V3.10267C2.06845 2.53153 2.53153 2.06845 3.10267 2.06845H44.4716C45.0428 2.06845 45.5059 2.53153 45.5059 3.10267V22.5257C45.5059 23.0968 45.9689 23.5599 46.5401 23.5599C47.1112 23.5599 47.5743 23.0968 47.5743 22.5257V3.10267C47.5743 1.38923 46.1851 0 44.4716 0H3.10267C1.38923 0 0 1.38923 0 3.10267V58.9508C0 60.6647 1.38923 62.0535 3.10267 62.0535H44.4716C46.1851 62.0535 47.5743 60.6647 47.5743 58.9508V48.6085C47.5743 48.0374 47.1112 47.5743 46.5401 47.5743Z" fill="#FCBB14"/>
</svg>
