<svg width="60" height="60" viewBox="0 0 60 60" fill="none" xmlns="http://www.w3.org/2000/svg">
<path d="M58.3904 46.2568L46.2535 38.1629C44.7133 37.144 42.6487 37.4793 41.51 38.9333L37.9747 43.4789C37.5203 44.078 36.6944 44.2517 36.0372 43.8866L35.3647 43.5159C33.1353 42.3007 30.3615 40.7879 24.7726 35.1971C19.1838 29.6063 17.668 26.8304 16.4528 24.6051L16.0841 23.9326C15.7139 23.2754 15.8844 22.446 16.4837 21.988L21.0263 18.4537C22.4797 17.315 22.8154 15.251 21.7977 13.7103L13.7038 1.57336C12.6608 0.00445672 10.5682 -0.466518 8.95352 0.504121L3.8783 3.55281C2.28364 4.49031 1.1137 6.00863 0.613799 7.78959C-1.21378 14.4486 0.161091 25.941 17.0904 42.8723C30.5574 56.3382 40.5828 59.9595 47.4737 59.9595C49.0596 59.9663 50.6393 59.76 52.1702 59.346C53.9515 58.8467 55.4701 57.6766 56.407 56.0815L59.4587 51.0093C60.4308 49.3943 59.96 47.3004 58.3904 46.2568ZM57.7369 49.984L54.6922 55.0592C54.0195 56.2105 52.9273 57.0571 51.6444 57.4215C45.4971 59.1092 34.7571 57.7113 18.5043 41.4584C2.25144 25.2056 0.853619 14.4666 2.54138 8.3183C2.90626 7.03395 3.75383 5.94036 4.90656 5.26656L9.98177 2.22186C10.6824 1.8003 11.5906 2.00464 12.0432 2.68545L16.4399 9.28648L20.1302 14.8213C20.5722 15.4896 20.4269 16.3853 19.7965 16.8798L15.2529 20.4141C13.8702 21.4714 13.4753 23.3845 14.3266 24.9028L14.6874 25.5583C15.9645 27.9005 17.5523 30.8143 23.3489 36.6101C29.1456 42.4057 32.0585 43.9935 34.3996 45.2705L35.0561 45.6322C36.5743 46.4834 38.4875 46.0887 39.5448 44.706L43.0791 40.1624C43.5737 39.5323 44.469 39.3872 45.1376 39.8287L57.2734 47.9226C57.9547 48.3748 58.159 49.2835 57.7369 49.984Z" fill="#FCBB14"/>
<path d="M33.9777 9.99696C43.3552 10.0074 50.9545 17.6068 50.965 26.9843C50.965 27.5361 51.4123 27.9835 51.9642 27.9835C52.5161 27.9835 52.9635 27.5361 52.9635 26.9843C52.9519 16.5035 44.4585 8.01001 33.9777 7.99854C33.4258 7.99854 32.9785 8.44586 32.9785 8.99775C32.9785 9.54964 33.4258 9.99696 33.9777 9.99696Z" fill="#FCBB14"/>
<path d="M33.9777 15.9926C40.0454 15.9997 44.9624 20.9167 44.9695 26.9844C44.9695 27.5363 45.417 27.9836 45.9687 27.9836C46.5206 27.9836 46.9679 27.5363 46.9679 26.9844C46.9596 19.8134 41.1486 14.0023 33.9777 13.9941C33.4258 13.9941 32.9785 14.4415 32.9785 14.9934C32.9785 15.5452 33.4258 15.9926 33.9777 15.9926Z" fill="#FCBB14"/>
<path d="M33.9777 21.9882C36.7357 21.9914 38.9706 24.2264 38.974 26.9845C38.974 27.5364 39.4215 27.9837 39.9732 27.9837C40.525 27.9837 40.9724 27.5364 40.9724 26.9845C40.968 23.1232 37.839 19.9941 33.9777 19.9897C33.4258 19.9897 32.9785 20.4371 32.9785 20.989C32.9785 21.5408 33.4258 21.9882 33.9777 21.9882Z" fill="#FCBB14"/>
</svg>
