<svg width="58" height="58" viewBox="0 0 58 58" fill="none" xmlns="http://www.w3.org/2000/svg">
<path d="M39.3641 30.7232C38.8338 30.7232 38.4041 31.1531 38.4041 31.6833V54.7257C38.4041 55.256 37.9742 55.6858 37.444 55.6858H2.88027C2.34997 55.6858 1.92022 55.2559 1.92022 54.7257V2.88027C1.92022 2.34997 2.35008 1.92021 2.88027 1.92021H37.4439C37.9742 1.92021 38.404 2.35008 38.404 2.88027V8.64091C38.404 9.17121 38.8338 9.60096 39.364 9.60096C39.8942 9.60096 40.3241 9.17109 40.3241 8.64091V2.88027C40.3241 1.28948 39.0345 0 37.4438 0H2.88027C1.2896 0 0 1.2896 0 2.88027V54.7257C0 56.3165 1.2896 57.606 2.88027 57.606H37.4439C39.0347 57.606 40.3242 56.3164 40.3242 54.7257V31.6834C40.3243 31.1531 39.8944 30.7232 39.3641 30.7232Z" fill="#FCBB14"/>
<path d="M56.2634 3.26183C54.3944 1.39298 51.3665 1.38634 49.4894 3.24696L49.4914 3.24605L43.1701 9.56639L10.1156 42.6228C10.106 42.6314 10.1031 42.6439 10.0944 42.6525C10.0185 42.7315 9.95681 42.8232 9.91197 42.9232L9.9043 42.9396L5.8383 52.4273C5.7111 52.7239 5.74153 53.0646 5.91917 53.3341C6.09682 53.6036 6.39788 53.7657 6.72068 53.7658C6.85074 53.766 6.97954 53.7396 7.09896 53.688L16.5858 49.622L16.6021 49.6143C16.7024 49.5699 16.7941 49.5082 16.8729 49.4319C16.8816 49.4232 16.894 49.4203 16.9026 49.4107L49.9579 16.3573L56.2783 10.0361C58.1389 8.15886 58.1323 5.1308 56.2634 3.26183ZM8.54493 50.9814L11.1142 44.9864L14.5398 48.4121L8.54493 50.9814ZM16.2257 47.3743L12.152 43.3006L43.8498 11.6039L47.9225 15.6766L16.2257 47.3743ZM49.2801 14.3189L45.2073 10.2462L46.7752 8.67737L50.8489 12.751L49.2801 14.3189ZM54.9226 8.68218L54.9178 8.68126L52.2016 11.3974L48.1328 7.31983L50.8489 4.60851C51.5766 3.88078 52.6372 3.59665 53.6313 3.86294C54.6253 4.12935 55.4017 4.90569 55.6681 5.89983C55.9344 6.89385 55.6503 7.95445 54.9226 8.68218Z" fill="#FCBB14"/>
<path d="M31.6834 8.64099H8.6409C8.1106 8.64099 7.68085 9.07086 7.68085 9.60104C7.68085 10.1312 8.11071 10.5611 8.6409 10.5611H31.6834C32.2137 10.5611 32.6434 10.1312 32.6434 9.60104C32.6434 9.07086 32.2135 8.64099 31.6834 8.64099Z" fill="#FCBB14"/>
<path d="M32.6434 15.3617C32.6434 14.8314 32.2135 14.4016 31.6834 14.4016H8.6409C8.1106 14.4016 7.68085 14.8315 7.68085 15.3617C7.68085 15.8918 8.11071 16.3217 8.6409 16.3217H31.6834C32.2135 16.3218 32.6434 15.892 32.6434 15.3617Z" fill="#FCBB14"/>
<path d="M8.6409 20.162C8.1106 20.162 7.68085 20.5919 7.68085 21.122C7.68085 21.6522 8.11071 22.0821 8.6409 22.0821H25.9227C26.453 22.0821 26.8828 21.6522 26.8828 21.122C26.8828 20.5919 26.4529 20.162 25.9227 20.162H8.6409Z" fill="#FCBB14"/>
</svg>
