<svg width="56" height="50" viewBox="0 0 56 50" fill="none" xmlns="http://www.w3.org/2000/svg">
<path d="M50.0946 0H13.8831C10.7404 0 8.18364 2.5049 8.18364 5.57385L7.95028 37.1076H0.883413C0.382591 37.1076 0 37.5455 0 38.0408V42.3806C0 46.4432 3.28745 49.7657 7.25506 49.9479V50H37.749V49.9413C37.9757 49.9505 38.113 50 38.2688 50H38.2905C42.5221 49.9755 45.9331 46.5645 45.9109 42.3797V14.7982H55.1166C55.6174 14.7982 56 14.3498 56 13.8549V5.89222C56.0057 2.65599 53.367 0.0232098 50.0946 0V0ZM7.65182 48.2063H7.64562C4.41972 48.2063 1.81376 45.5696 1.81376 42.3797V38.9013H30.6073V42.3649C30.6002 44.3837 31.4066 46.3219 32.8479 47.7513C33.0011 47.9037 33.1614 47.9821 33.3253 48.2063H7.65182ZM44.0972 42.3789C44.0972 45.5696 41.5164 48.2063 38.2892 48.2063H38.2706C35.0274 48.1831 32.4135 45.5726 32.421 42.3653V38.0408C32.4237 37.5385 32.0221 37.1251 31.5142 37.1076H9.76404L9.9974 5.57998C9.9974 3.49417 11.7403 1.79372 13.8831 1.79372H45.8131C44.7795 2.9148 44.0972 4.33322 44.0972 5.9163V42.3789ZM54.1862 5.90798V13.0045H45.9109V5.91455C45.9109 3.66977 47.7991 1.79372 50.0681 1.79372H50.0933C52.368 1.81606 54.1968 3.65138 54.1862 5.90142V5.90798Z" fill="#FCBB14"/>
<path d="M21.6444 21.7488L26.0321 24.8471C26.3184 25.051 26.697 25.051 26.9833 24.8471L31.3577 21.7497C32.8773 20.6789 33.9997 18.4403 33.9997 16.542V10.2734C34.0088 9.94204 33.8318 9.63474 33.5459 9.4841L26.8653 6.09013C26.6309 5.96996 26.3558 5.96996 26.1215 6.09013L19.4533 9.47466C19.1674 9.6253 18.9908 9.9326 19.0004 10.2639V16.542C19.0004 18.4403 20.1252 20.6789 21.6444 21.7488ZM20.7024 10.8124L26.5 7.85793L32.2976 10.8206V16.542C32.2976 17.866 31.4574 19.5501 30.3974 20.2965L26.49 23.0566L22.5981 20.2969C21.5381 19.5497 20.7024 17.866 20.7024 16.542V10.8124Z" fill="#FCBB14"/>
<path d="M25.0175 18.6994C25.1808 18.8903 25.4041 18.9985 25.6376 19H25.6397C25.8723 18.999 26.0951 18.8923 26.2589 18.7033L29.743 14.7131C30.0856 14.3214 30.0856 13.6859 29.7435 13.2942C29.4018 12.902 28.8467 12.902 28.5045 13.2937L25.6427 16.5696L24.4987 15.2472C24.1579 14.8536 23.6032 14.8506 23.2594 15.2408C22.9155 15.6311 22.9134 16.2661 23.2538 16.6597L25.0175 18.6994Z" fill="#FCBB14"/>
<path d="M38.0769 28H15.9231C15.4133 28 15 28.4478 15 29C15 29.5522 15.4133 30 15.9231 30H38.0769C38.5867 30 39 29.5522 39 29C39 28.4478 38.5867 28 38.0769 28Z" fill="#FCBB14"/>
<path d="M38.0769 32H15.9231C15.4133 32 15 32.4478 15 33C15 33.5522 15.4133 34 15.9231 34H38.0769C38.5867 34 39 33.5522 39 33C39 32.4478 38.5867 32 38.0769 32Z" fill="#FCBB14"/>
</svg>
