<svg width="52" height="58" viewBox="0 0 52 58" fill="none" xmlns="http://www.w3.org/2000/svg">
<path d="M20.3 9.6667C20.8736 9.6667 21.4343 9.49662 21.9112 9.17796C22.3881 8.85931 22.7598 8.40639 22.9793 7.87648C23.1988 7.34658 23.2562 6.76348 23.1443 6.20094C23.0324 5.63839 22.7562 5.12166 22.3506 4.71609C21.9451 4.31052 21.4283 4.03432 20.8658 3.92242C20.3032 3.81053 19.7201 3.86796 19.1902 4.08745C18.6603 4.30694 18.2074 4.67864 17.8888 5.15555C17.5701 5.63245 17.4 6.19313 17.4 6.7667C17.4 7.53583 17.7056 8.27345 18.2494 8.81731C18.7933 9.36117 19.5309 9.6667 20.3 9.6667ZM20.3 5.80003C20.4912 5.80003 20.6781 5.85673 20.8371 5.96295C20.996 6.06917 21.1199 6.22014 21.1931 6.39677C21.2663 6.57341 21.2854 6.76777 21.2481 6.95529C21.2108 7.1428 21.1188 7.31505 20.9836 7.45024C20.8484 7.58543 20.6761 7.67749 20.4886 7.71479C20.3011 7.75209 20.1067 7.73295 19.9301 7.65978C19.7535 7.58662 19.6025 7.46272 19.4963 7.30375C19.3901 7.14478 19.3334 6.95789 19.3334 6.7667C19.3334 6.51032 19.4352 6.26445 19.6165 6.08316C19.7978 5.90188 20.0436 5.80003 20.3 5.80003Z" fill="#FCBB14"/>
<path d="M50.6591 31.0165L41.9591 27.1498C41.8356 27.0949 41.7019 27.0665 41.5667 27.0665C41.4315 27.0665 41.2978 27.0949 41.1742 27.1498L40.6 27.405V14.5C40.5985 13.2186 40.0887 11.9901 39.1827 11.084C38.2766 10.1779 37.0481 9.6682 35.7667 9.66667H30.9034C30.0765 9.04234 29.0694 8.70314 28.0333 8.7H26.1V4.83333C26.0985 3.55192 25.5887 2.32344 24.6827 1.41735C23.7766 0.511253 22.5481 0.00153493 21.2667 0H19.3333C18.0519 0.00153493 16.8234 0.511253 15.9173 1.41735C15.0113 2.32344 14.5015 3.55192 14.5 4.83333V8.7H12.5667C11.5306 8.70314 10.5235 9.04234 9.69663 9.66667H4.83333C3.55192 9.6682 2.32344 10.1779 1.41735 11.084C0.511253 11.9901 0.00153493 13.2186 0 14.5V53.1667C0.00153493 54.4481 0.511253 55.6766 1.41735 56.5827C2.32344 57.4887 3.55192 57.9985 4.83333 58H35.7667C37.0481 57.9985 38.2766 57.4887 39.1827 56.5827C40.0887 55.6766 40.5985 54.4481 40.6 53.1667V49.8684L41.0969 50.1449C41.2406 50.2248 41.4023 50.2667 41.5667 50.2667C41.7311 50.2667 41.8928 50.2248 42.0365 50.1449L44.7692 48.6233C46.7275 47.5348 48.3593 45.9427 49.4958 44.0119C50.6323 42.081 51.2322 39.8815 51.2333 37.641V31.9C51.2334 31.713 51.1791 31.5299 51.0772 31.3731C50.9753 31.2163 50.8301 31.0924 50.6591 31.0165ZM38.6667 14.5V28.2644L36.7333 29.1237V15.4667C36.7333 14.9539 36.5296 14.4622 36.1671 14.0996C35.8045 13.737 35.3128 13.5333 34.8 13.5333H32.8667C32.8661 12.8674 32.7265 12.2089 32.4568 11.6H35.7667C36.5358 11.6 37.2734 11.9055 37.8173 12.4494C38.3611 12.9932 38.6667 13.7309 38.6667 14.5ZM34.8 45.6595V52.2H13.5333V47.3667C13.5333 46.5975 13.2278 45.8599 12.6839 45.3161C12.1401 44.7722 11.4025 44.4667 10.6333 44.4667H5.8V15.4667H7.73333V18.3667C7.73333 18.623 7.83518 18.8689 8.01646 19.0502C8.19775 19.2315 8.44362 19.3333 8.7 19.3333H31.9C32.1564 19.3333 32.4023 19.2315 32.5835 19.0502C32.7648 18.8689 32.8667 18.623 32.8667 18.3667V15.4667H34.8V29.9821L32.4742 31.0165C32.3033 31.0924 32.1581 31.2163 32.0561 31.3731C31.9542 31.5299 31.9 31.713 31.9 31.9V37.641C31.9026 40.5702 32.9284 43.4064 34.8 45.6595ZM5.8 47.7669L10.2331 52.2H5.8V47.7669ZM7.16687 46.4H10.6333C10.8897 46.4 11.1356 46.5018 11.3169 46.6831C11.4982 46.8644 11.6 47.1103 11.6 47.3667V50.8331L7.16687 46.4ZM9.66667 16.4333H30.9333V17.4H9.66667V16.4333ZM12.5667 10.6333H15.4667C15.723 10.6333 15.9689 10.5315 16.1502 10.3502C16.3315 10.1689 16.4333 9.92304 16.4333 9.66667V4.83333C16.4333 4.06421 16.7389 3.32658 17.2827 2.78272C17.8266 2.23887 18.5642 1.93333 19.3333 1.93333H21.2667C22.0358 1.93333 22.7734 2.23887 23.3173 2.78272C23.8611 3.32658 24.1667 4.06421 24.1667 4.83333V9.66667C24.1667 9.92304 24.2685 10.1689 24.4498 10.3502C24.6311 10.5315 24.877 10.6333 25.1333 10.6333H28.0333C28.8025 10.6333 29.5401 10.9389 30.0839 11.4827C30.6278 12.0266 30.9333 12.7642 30.9333 13.5333V14.5H9.66667V13.5333C9.66667 12.7642 9.9722 12.0266 10.5161 11.4827C11.0599 10.9389 11.7975 10.6333 12.5667 10.6333ZM38.6667 53.1667C38.6667 53.9358 38.3611 54.6734 37.8173 55.2173C37.2734 55.7611 36.5358 56.0667 35.7667 56.0667H4.83333C4.06421 56.0667 3.32658 55.7611 2.78272 55.2173C2.23887 54.6734 1.93333 53.9358 1.93333 53.1667V14.5C1.93333 13.7309 2.23887 12.9932 2.78272 12.4494C3.32658 11.9055 4.06421 11.6 4.83333 11.6H8.1432C7.87353 12.2089 7.73393 12.8674 7.73333 13.5333H5.8C5.28725 13.5333 4.7955 13.737 4.43293 14.0996C4.07036 14.4622 3.86667 14.9539 3.86667 15.4667V52.2C3.86667 52.7127 4.07036 53.2045 4.43293 53.5671C4.7955 53.9296 5.28725 54.1333 5.8 54.1333H34.8C35.3128 54.1333 35.8045 53.9296 36.1671 53.5671C36.5296 53.2045 36.7333 52.7127 36.7333 52.2V47.5387C37.2479 47.9422 37.7931 48.3048 38.3641 48.6233L38.6667 48.7915V53.1667ZM49.3 37.641C49.2994 39.5373 48.7921 41.3989 47.8305 43.0332C46.8688 44.6675 45.4879 46.0151 43.8306 46.9365L41.5667 48.1941L39.3027 46.9375C37.6453 46.016 36.2643 44.6682 35.3026 43.0337C34.341 41.3992 33.8337 39.5374 33.8333 37.641V32.5274L41.5667 29.0967L49.3 32.5322V37.641Z" fill="#FCBB14"/>
<path d="M38.3835 37.0166L37.0166 38.3835L39.9166 41.2835C40.0979 41.4647 40.3437 41.5665 40.6 41.5665C40.8564 41.5665 41.1022 41.4647 41.2835 41.2835L46.1168 36.4501L44.7499 35.0833L40.6 39.2332L38.3835 37.0166Z" fill="#FCBB14"/>
<path d="M26.8733 21.6533C26.7833 21.5332 26.6665 21.4358 26.5323 21.3687C26.398 21.3015 26.25 21.2666 26.1 21.2666H14.5C14.3499 21.2666 14.2019 21.3015 14.0677 21.3687C13.9334 21.4358 13.8167 21.5332 13.7266 21.6533L10.8266 25.5199C10.7011 25.6873 10.6333 25.8908 10.6333 26.0999V41.5666C10.6333 41.823 10.7351 42.0689 10.9164 42.2501C11.0977 42.4314 11.3436 42.5333 11.6 42.5333H29C29.2563 42.5333 29.5022 42.4314 29.6835 42.2501C29.8648 42.0689 29.9666 41.823 29.9666 41.5666V26.0999C29.9666 25.8908 29.8988 25.6873 29.7733 25.5199L26.8733 21.6533ZM14.9833 23.1999H25.6166L27.0666 25.1333H13.5333L14.9833 23.1999ZM17.4 28.9999H12.5666V27.0666H17.4V28.9999ZM19.3333 27.0666H21.2666V30.5331L20.9834 30.2498C20.8021 30.0686 20.5563 29.9668 20.3 29.9668C20.0436 29.9668 19.7978 30.0686 19.6165 30.2498L19.3333 30.5331V27.0666ZM23.2 27.0666H28.0333V28.9999H23.2V27.0666ZM12.5666 40.5999V30.9333H17.4V32.8666C17.4 33.0578 17.4567 33.2446 17.5629 33.4035C17.6692 33.5625 17.8201 33.6863 17.9967 33.7595C18.1733 33.8326 18.3677 33.8518 18.5552 33.8145C18.7427 33.7772 18.9149 33.6852 19.0501 33.55L20.3 32.3001L21.5499 33.55C21.7311 33.7313 21.9769 33.8332 22.2333 33.8333C22.3604 33.8337 22.4862 33.8087 22.6035 33.7598C22.7801 33.6866 22.9311 33.5626 23.0372 33.4037C23.1434 33.2447 23.2 33.0578 23.2 32.8666V30.9333H28.0333V40.5999H12.5666Z" fill="#FCBB14"/>
</svg>
