<svg width="52" height="52" viewBox="0 0 52 52" fill="none" xmlns="http://www.w3.org/2000/svg">
<path d="M50.2377 4.79383L47.117 1.67313C45.0818 -0.362031 41.6525 -0.480404 39.4723 1.4094L33.9877 6.16359C33.9175 6.22445 33.8573 6.29607 33.8094 6.37569L28.4705 15.269L25.0424 16.4116C24.7527 16.5082 24.5337 16.7479 24.4636 17.045C24.3935 17.3421 24.4822 17.6543 24.698 17.8702L34.0406 27.2127C34.2077 27.3797 34.4326 27.4706 34.6635 27.4706C34.7309 27.4706 34.7988 27.4629 34.8658 27.4471C35.1629 27.377 35.4026 27.158 35.4992 26.8683L36.6421 23.4391L45.6662 17.9901C45.7456 17.9421 45.817 17.8819 45.8777 17.8115L50.5193 12.4326C52.3985 10.255 52.272 6.82829 50.2377 4.79383ZM49.1856 11.2816L44.6356 16.5543L35.4538 22.0986C35.2746 22.2068 35.1398 22.3754 35.0736 22.5742L34.2786 24.9591L32.1734 22.8539C32.173 22.8535 32.1727 22.853 32.1723 22.8526L29.058 19.7384C29.0577 19.7381 29.0572 19.7379 29.0569 19.7376L26.9515 17.6322L29.3364 16.8372C29.5358 16.7707 29.7049 16.6352 29.813 16.455L35.2476 7.40281L40.6262 2.74052C42.1227 1.44318 44.4755 1.52311 45.8712 2.91894L48.992 6.03964C50.3883 7.43577 50.4751 9.78741 49.1856 11.2816Z" fill="#FCBB14"/>
<path d="M47.5351 35.4584C44.949 32.8723 41.1427 31.9734 37.694 33.0914L18.9743 14.3717C20.0922 10.923 19.1933 7.11664 16.6073 4.53049C13.8828 1.80619 9.80407 0.953941 6.21596 2.36022C5.93935 2.46865 5.73588 2.70925 5.67512 3.00016C5.61436 3.29097 5.70433 3.59294 5.9145 3.80311L11.5178 9.4063L7.78068 13.1433L2.17749 7.54002C1.96722 7.32995 1.66566 7.24018 1.37454 7.30064C1.08363 7.36139 0.842928 7.56477 0.734597 7.84148C-0.671474 11.4294 0.180466 15.5082 2.90487 18.2328C5.49102 20.8189 9.29731 21.718 12.7459 20.5998L19.7457 27.5995L11.0288 36.3166L5.48463 39.4164C5.33045 39.5026 5.20569 39.6333 5.12667 39.7913L2.63536 44.7739C2.46576 45.113 2.5322 45.5226 2.80029 45.7908L5.9144 48.905C6.08349 49.0741 6.30898 49.163 6.53751 49.163C6.6713 49.163 6.8061 49.1325 6.93127 49.0699L11.9139 46.5786C12.0719 46.4996 12.2026 46.3749 12.2888 46.2207L15.3886 40.6764L24.1057 31.9596L31.4658 39.3197C30.3478 42.7684 31.2468 46.5748 33.8329 49.1609C35.6853 51.0133 38.1637 52.0001 40.6884 52.0001C41.8767 52 43.0757 51.7813 44.2241 51.3313C44.5007 51.2229 44.7042 50.9823 44.765 50.6914C44.8257 50.4006 44.7358 50.0986 44.5256 49.8884L38.9223 44.2851L42.6593 40.5482L48.2625 46.1514C48.4727 46.3616 48.7744 46.4517 49.0654 46.3908C49.3563 46.33 49.5971 46.1266 49.7054 45.8499C51.1116 42.2618 50.2596 38.183 47.5351 35.4584ZM14.0564 39.517C13.9991 39.5743 13.9501 39.6393 13.9105 39.7101L10.8834 45.1242L6.71126 47.2103L4.49494 44.9939L6.58092 40.8217L11.9949 37.7947C12.0657 37.7551 12.1307 37.7061 12.188 37.6488L20.9913 28.8454L22.8598 30.7139L14.0564 39.517ZM48.4606 43.8579L43.2822 38.6795C42.9381 38.3356 42.3806 38.3356 42.0365 38.6795L37.0539 43.6621C36.8888 43.8274 36.7959 44.0513 36.7959 44.285C36.7959 44.5187 36.8888 44.7426 37.0539 44.9079L42.2324 50.0864C39.6647 50.5966 36.9719 49.8086 35.0786 47.9152C32.8494 45.686 32.1522 42.3484 33.3028 39.4124C33.4305 39.0864 33.3531 38.7157 33.1056 38.4681L13.5976 18.9602C13.4292 18.7919 13.2039 18.7023 12.9745 18.7023C12.8666 18.7023 12.7576 18.7222 12.6533 18.763C9.71745 19.9137 6.37978 19.2163 4.15047 16.9873C2.25701 15.0938 1.46887 12.4009 1.97939 9.83343L7.15777 15.0119C7.50184 15.3559 8.05942 15.3557 8.40348 15.0119L13.3861 10.0293C13.7301 9.68524 13.7301 9.12766 13.3861 8.78359L8.20771 3.60511C10.7754 3.09388 13.468 3.88263 15.3615 5.77629C17.5907 8.0055 18.2879 11.3432 17.1373 14.2792C17.0096 14.6052 17.087 14.9758 17.3345 15.2234L36.8423 34.7311C37.09 34.9786 37.4608 35.056 37.7865 34.9283C40.7226 33.778 44.0601 34.4749 46.2894 36.704C48.1831 38.5975 48.971 41.2905 48.4606 43.8579Z" fill="#FCBB14"/>
</svg>
