<svg width="37" height="66" viewBox="0 0 37 66" fill="none" xmlns="http://www.w3.org/2000/svg">
<path d="M22 17C22 14.7943 20.43 13 18.5 13C16.5705 13 15 14.7943 15 17C15 19.2057 16.5705 21 18.5 21C20.43 21 22 19.2057 22 17ZM16.8642 17C16.8642 15.9693 17.5977 15.1305 18.5 15.1305C19.4023 15.1305 20.1363 15.9688 20.1363 17C20.1363 18.0312 19.4023 18.8701 18.5 18.8701C17.5981 18.8701 16.8642 18.0312 16.8642 17Z" fill="#FCBB14"/>
<path d="M30.7784 9.95953H23.0527V7.96652C23.0527 7.43075 22.6182 6.9967 22.0818 6.9967C21.5455 6.9967 21.111 7.43075 21.111 7.96652V9.95953H15.8895V1.93964H21.111V4.08674C21.111 4.6225 21.5455 5.05706 22.0818 5.05706C22.6182 5.05706 23.0527 4.6225 23.0527 4.08674V1.23921C23.0527 0.555909 22.4962 0 21.8122 0H15.1883C14.5043 0 13.9478 0.555909 13.9478 1.23921V9.95953H6.22161C2.79098 9.95953 0 12.7476 0 16.1747V59.7814C0 61.2024 0.497003 62.5936 1.39927 63.6989C1.738 64.1138 2.34942 64.1763 2.76527 63.8379C3.18112 63.4995 3.24312 62.8887 2.90439 62.4733C2.28389 61.7129 1.94214 60.7567 1.94164 59.7814V16.1747C1.94164 13.8172 3.8616 11.8992 6.22161 11.8992H30.7784C33.1384 11.8992 35.0584 13.8172 35.0584 16.1747V59.7814C35.0584 62.1389 33.1384 64.0564 30.7784 64.0564C4.79915 64.0403 6.16667 64.0962 5.58952 64.0101C5.05975 63.9305 4.56527 64.2956 4.48563 64.8253C4.40649 65.3551 4.77193 65.849 5.3022 65.9281C6.12987 66.052 4.9045 65.9729 30.7784 65.9966C34.209 65.9966 37 63.2085 37 59.7814V16.1747C37 12.7476 34.209 9.95953 30.7784 9.95953Z" fill="#FCBB14"/>
<path d="M30.0058 49H6.99424C6.44498 49 6 49.448 6 50.0003C6 50.552 6.44498 51 6.99424 51H30.0058C30.555 51 31 50.552 31 50.0003C31 49.448 30.555 49 30.0058 49Z" fill="#FCBB14"/>
<path d="M9.03191 25.1557C4.5689 30.1215 5.05815 37.7049 10.3339 42.0711C18.836 49.1074 31.9582 42.5791 30.9446 31.9C30.8964 31.3896 30.4262 31.0126 29.8938 31.0599C29.3613 31.1062 28.9695 31.5578 29.0177 32.0687C29.288 34.9142 28.2979 37.7314 26.2822 39.8405C26.255 39.7147 26.6157 36.3852 23.5667 33.8717C26.1365 30.603 24.6843 25.8203 20.5795 24.452C16.4776 23.0688 12.1492 26.0112 12.1492 30.2058C12.1492 31.5322 12.6018 32.821 13.4296 33.8732C11.6987 35.3008 10.7131 37.3434 10.7131 39.5301V39.8434C4.56438 33.4394 9.2484 22.8524 18.5024 22.8524C22.6439 22.8524 26.4128 25.1885 28.1176 28.7941C28.3381 29.2612 28.9112 29.4679 29.3985 29.2563C29.8847 29.0443 30.1007 28.4943 29.8797 28.0273C26.1521 20.1422 15.033 18.4804 9.03191 25.1557ZM14.9004 35.1157C15.592 34.5971 15.7282 33.6148 15.1405 32.9531C14.4593 32.1882 14.0841 31.2127 14.0841 30.2058C14.0841 27.3015 17.0794 25.2401 19.941 26.2045C22.8323 27.1684 23.8927 30.6642 21.8558 32.9511C21.2676 33.61 21.4017 34.5947 22.0934 35.1133C23.5255 36.1905 24.3473 37.7998 24.3473 39.5301V41.4291C20.8226 43.6808 16.1878 43.6987 12.648 41.43C12.7962 40.4854 11.9398 37.3458 14.9004 35.1157Z" fill="#FCBB14"/>
<path d="M10.9703 56C10.4346 56 10 56.4476 10 57C10 57.5524 10.4346 58 10.9703 58H26.0302C26.5659 58 27 57.5524 27 57C27 56.4476 26.5659 56 26.0302 56H10.9703Z" fill="#FCBB14"/>
</svg>
